#N canvas 0 65 1366 703 16;
#X obj 176 340 cnv 15 300 310 empty empty Arm_Thumb_Finger 20 12 0
14 -204786 -66577 0;
#X obj 197 398 separator;
#X obj 971 338 cnv 15 300 310 empty empty Arm_Middle_Finger 20 12 0
14 -204786 -66577 0;
#X obj 994 394 separator;
#X obj 994 479 rotate 0 1 0;
#X obj 994 423 translate 1 1 0 0;
#X obj 580 13 cnv 15 300 290 empty empty Head_Index_Finger 20 12 0
14 -204786 -66577 0;
#X obj 600 64 separator;
#X obj 600 126 rotate 1 0 0;
#X obj 600 156 translate 1 0 1 0;
#X obj 600 93 translate 1 0 1 0;
#X obj 526 310 cnv 15 390 360 empty empty Body_Hand_Palm 20 12 0 14
-261234 -66577 0;
#X obj 536 458 translate -0.5 0 1 0;
#X obj 748 425 unpack 0 0 0;
#X obj 713 584 separator;
#X obj 713 518 translate 0.5 0 1 0;
#X obj 589 425 translateXYZ;
#X obj 607 393 unpack 0 0 0;
#X obj 715 489 rotateXYZ;
#X obj 743 454 * -1;
#X obj 818 456 * -1;
#N canvas 540 178 476 519 head 0;
#X obj 30 84 model data/cabeca.obj;
#X obj 30 9 inlet;
#X obj 31 481 outlet;
#X obj 31 447 model data/cabelo.obj;
#X obj 31 364 scaleXYZ 1.8 2.4 2.4;
#X obj 31 116 translateXYZ 0 -0.8 -0.5;
#X obj 31 406 color 0.8 1 0.4;
#X obj 402 7 adc~;
#X obj 403 44 env~;
#X floatatom 404 77 5 0 0 0 - - -;
#X floatatom 406 135 5 0 0 0 - - -;
#X obj 78 148 separator;
#X floatatom 405 193 5 0 0 0 - - -;
#X obj 80 315 sphere, f 8;
#X obj 82 214 alpha;
#X obj 80 247 translateXYZ 0 0.38 0.42;
#X obj 78 280 scaleXYZ 0.3 0.05 0.08;
#X obj 78 184 color 1 0.5 0.5 0.5;
#X obj 404 105 - 60;
#X msg 265 150 \$1 0 0 1;
#X obj 406 163 / 20;
#X connect 0 0 5 0;
#X connect 1 0 0 0;
#X connect 3 0 2 0;
#X connect 4 0 6 0;
#X connect 5 0 4 0;
#X connect 5 0 11 0;
#X connect 6 0 3 0;
#X connect 7 0 8 0;
#X connect 8 0 9 0;
#X connect 9 0 18 0;
#X connect 10 0 20 0;
#X connect 11 0 17 0;
#X connect 12 0 19 0;
#X connect 14 0 15 0;
#X connect 15 0 16 0;
#X connect 16 0 13 0;
#X connect 17 0 14 0;
#X connect 18 0 10 0;
#X connect 19 0 17 1;
#X connect 20 0 12 0;
#X restore 599 250 pd head;
#N canvas 669 207 450 300 arm_thumb 0;
#X obj 78 41 inlet;
#X obj 78 83 translateXYZ 0.09 0 0;
#X obj 78 131 scaleXYZ 1.8 2.75 2.75;
#X obj 75 235 model data/bracoesquerdo.obj;
#X connect 0 0 1 0;
#X connect 1 0 2 0;
#X connect 2 0 3 0;
#X restore 197 584 pd arm_thumb;
#N canvas 617 219 450 300 arm_middle 0;
#X obj 78 40 inlet;
#X obj 78 79 translateXYZ 0.09 0 0;
#X obj 78 114 scaleXYZ 1.8 2.75 2.75;
#X obj 78 184 model data/bracoesquerdo.obj;
#X connect 0 0 1 0;
#X connect 1 0 2 0;
#X connect 2 0 3 0;
#X restore 994 586 pd arm_middle;
#X obj 197 514 translateXYZ 1 0.5 0;
#X obj 994 508 translateXYZ 1 0.5 0;
#N canvas 761 126 450 300 body 0;
#X obj 100 93 scaleXYZ 1.3 1.3 1.3;
#X obj 100 21 inlet;
#X obj 100 162 outlet;
#X obj 100 56 rotateXYZ 0 180 0;
#X obj 100 129 model data/corpo.obj;
#X connect 0 0 4 0;
#X connect 1 0 3 0;
#X connect 3 0 0 0;
#X connect 4 0 2 0;
#X restore 713 643 pd body;
#X obj 600 215 color 1 0.8 0;
#X obj 197 549 color 1 0.8 0;
#X obj 994 543 color 1 0.8 0;
#X obj 713 613 color 1 0.8 0;
#X obj 197 425 translate 1 -1 0 0;
#X obj 197 485 rotate 0 1 0;
#X obj 601 185 scaleXYZ 0.8 1 0.8;
#X obj 571 552 s \$0arm_thumb;
#X obj 197 369 r \$0arm_thumb;
#X obj 600 36 r \$0head;
#X obj 995 365 r \$0arm_middle;
#X obj 725 554 s \$0head;
#X obj 817 552 s \$0arm_middle;
#X obj 540 341 r \$0gemhead;
#X obj 749 383 r \$0body_rotation;
#X obj 260 454 r \$0arm_thumb_rotation;
#X obj 706 60 r \$0head_rotation;
#X obj 1050 451 r \$0arm_middle_rotation;
#X obj 662 342 r \$0body_translation;
#X obj 11 23 inlet;
#X obj 11 99 s \$0gemhead;
#X obj 81 129 s \$0body_rotation;
#X obj 119 160 s \$0arm_thumb_rotation;
#X obj 152 102 s \$0head_rotation;
#X obj 268 131 s \$0arm_middle_rotation;
#X obj 361 160 s \$0body_translation;
#X obj 84 2 inlet;
#X obj 84 35 unpack 0 0 0 0 0 0 0 0 0;
#X obj 82 70 pack 0 0 0;
#X obj 273 72 pack 0 0 0;
#X connect 1 0 31 0;
#X connect 3 0 5 0;
#X connect 4 0 25 0;
#X connect 5 0 4 0;
#X connect 7 0 10 0;
#X connect 8 0 9 0;
#X connect 9 0 33 0;
#X connect 10 0 8 0;
#X connect 12 0 18 0;
#X connect 13 0 19 0;
#X connect 13 1 18 2;
#X connect 13 2 20 0;
#X connect 14 0 30 0;
#X connect 15 0 14 0;
#X connect 15 0 34 0;
#X connect 15 0 38 0;
#X connect 15 0 39 0;
#X connect 16 0 12 0;
#X connect 17 0 16 1;
#X connect 17 1 16 2;
#X connect 17 2 16 3;
#X connect 18 0 15 0;
#X connect 19 0 18 1;
#X connect 20 0 18 3;
#X connect 24 0 28 0;
#X connect 25 0 29 0;
#X connect 27 0 21 0;
#X connect 28 0 22 0;
#X connect 29 0 23 0;
#X connect 30 0 26 0;
#X connect 31 0 32 0;
#X connect 32 0 24 0;
#X connect 33 0 27 0;
#X connect 35 0 1 0;
#X connect 36 0 7 0;
#X connect 37 0 3 0;
#X connect 40 0 16 0;
#X connect 41 0 13 0;
#X connect 42 0 32 1;
#X connect 43 0 8 1;
#X connect 44 0 4 1;
#X connect 45 0 17 0;
#X connect 46 0 47 0;
#X connect 53 0 54 0;
#X connect 54 0 55 0;
#X connect 54 1 55 1;
#X connect 54 2 55 2;
#X connect 54 3 49 0;
#X connect 54 4 50 0;
#X connect 54 5 51 0;
#X connect 54 6 56 0;
#X connect 54 7 56 1;
#X connect 54 8 56 2;
#X connect 55 0 48 0;
#X connect 56 0 52 0;
