#N canvas 0 65 1366 703 16;
#X obj 176 340 cnv 15 300 310 empty empty Arm_Thumb_Finger 20 12 0
14 -204786 -66577 0;
#X obj 197 398 separator;
#X obj 971 338 cnv 15 300 310 empty empty Arm_Middle_Finger 20 12 0
14 -204786 -66577 0;
#X obj 994 394 separator;
#X obj 994 479 rotate 0 1 0;
#X obj 994 423 translate 1 1 0 0;
#X obj 580 13 cnv 15 300 290 empty empty Head_Index_Finger 20 12 0
14 -204786 -66577 0;
#X obj 600 64 separator;
#X obj 600 126 rotate 1 0 0;
#X obj 600 156 translate 1 0 1 0;
#X obj 600 93 translate 1 0 1 0;
#X obj 526 310 cnv 15 390 360 empty empty Body_Hand_Palm 20 12 0 14
-261234 -66577 0;
#X obj 536 458 translate -0.5 0 1 0;
#X obj 748 425 unpack 0 0 0;
#X obj 713 584 separator;
#X obj 713 518 translate 0.5 0 1 0;
#X obj 589 425 translateXYZ;
#X obj 607 393 unpack 0 0 0;
#X obj 715 489 rotateXYZ;
#X obj 743 454 * -1;
#X obj 818 456 * -1;
#N canvas 568 65 706 675 head 1;
#X obj 40 -97 inlet;
#X obj 617 -72 adc~;
#X obj 618 -35 env~;
#X floatatom 618 -3 5 0 0 0 - - -;
#X floatatom 618 55 5 0 0 0 - - -;
#X floatatom 618 114 5 0 0 0 - - -;
#X obj 618 25 - 60;
#X obj 618 83 / 20;
#X obj 68 166 separator;
#X obj 366 183 separator;
#X obj 44 -12 scaleXYZ 1 1 1;
#X obj 82 413 separator;
#X obj 399 428 separator;
#X obj 76 511 color 0 0 0;
#X obj 405 517 color 0 0 0;
#X obj 78 253 scaleXYZ 0.3 0.7 0.05;
#X obj 370 269 scaleXYZ 0.3 0.7 0.05;
#X obj 375 304 color 0.6 0.6 0.7;
#X obj 68 196 rotateXYZ 0 70 0;
#X obj 370 213 rotateXYZ 0 110 0;
#X obj 77 317 sphere 1 30;
#X obj 376 335 sphere 1 30;
#X obj 78 541 sphere 1 30;
#X obj 413 543 sphere 1 30;
#X obj 42 100 sphere 1 30;
#X obj 39 -47 translateXYZ 0 0.5 0;
#X obj 73 286 color 0.6 0.6 0.7;
#X obj 61 25 s \$0s;
#X obj 356 151 r \$0s;
#X obj 397 393 r \$0s;
#X obj 79 366 r \$0s;
#X obj 72 136 r \$0s;
#X obj 45 55 color 0.6 0.6 0.7;
#X floatatom 238 26 5 0 0 0 - - -;
#X floatatom 299 26 5 0 0 0 - - -;
#X floatatom 368 28 5 0 0 0 - - -;
#X obj 67 223 translateXYZ 0 -0.3 0.98;
#X obj 370 241 translateXYZ 0 -0.3 -0.98;
#X text 137 138 left ear;
#X text 414 150 right ear;
#X text 137 382 left eye;
#X text 458 396 right eye;
#X obj 72 477 scaleXYZ 0.05 0.05 0.05;
#X obj 399 485 scaleXYZ 0.05 0.05 0.05;
#X obj 61 634 separator;
#X obj 376 645 separator;
#X obj 61 759 sphere 1 30;
#X obj 376 766 sphere 1 30;
#X obj 376 614 r \$0s;
#X obj 61 604 r \$0s;
#X text 121 605 glass left;
#X text 433 612 glass right;
#X obj 61 696 scaleXYZ 0.25 0.25 0.02;
#X obj 61 664 translateXYZ -0.3 0.3 1;
#X obj 61 726 color 1 1 1;
#X obj 75 445 translateXYZ -0.3 0.2 1;
#X obj 376 737 color 1 1 1;
#X obj 376 705 scaleXYZ 0.25 0.25 0.02;
#X obj 376 675 translateXYZ 0.3 0.3 1;
#X obj 404 457 translateXYZ 0.3 0.2 1;
#X obj 65 837 separator;
#X obj 380 848 separator;
#X obj 65 962 sphere 1 30;
#X obj 380 969 sphere 1 30;
#X obj 380 817 r \$0s;
#X obj 65 807 r \$0s;
#X text 125 808 glass left;
#X text 437 815 glass right;
#X obj 65 866 translateXYZ -0.3 0.3 1;
#X obj 380 878 translateXYZ 0.3 0.3 1;
#X obj 66 898 scaleXYZ 0.26 0.26 0.01;
#X obj 380 908 scaleXYZ 0.26 0.26 0.01;
#X obj 65 929 color 0 0 0;
#X obj 380 939 color 0 0 0;
#X obj 229 1000 separator;
#X obj 224 963 r \$0s;
#X obj 228 1132 color 0.6 0.6 0.7;
#X obj 227 1163 cylinder 1 30;
#X obj 219 1092 scaleXYZ 0.2 0.2 0.5;
#X obj 229 1029 rotateXYZ 60 0 0;
#X obj 224 1060 translateXYZ 0 0.6 1;
#X connect 0 0 25 0;
#X connect 1 0 2 0;
#X connect 2 0 3 0;
#X connect 3 0 6 0;
#X connect 4 0 7 0;
#X connect 6 0 4 0;
#X connect 7 0 5 0;
#X connect 8 0 18 0;
#X connect 9 0 19 0;
#X connect 10 0 32 0;
#X connect 10 0 27 0;
#X connect 11 0 55 0;
#X connect 12 0 59 0;
#X connect 13 0 22 0;
#X connect 14 0 23 0;
#X connect 15 0 26 0;
#X connect 16 0 17 0;
#X connect 17 0 21 0;
#X connect 18 0 36 0;
#X connect 19 0 37 0;
#X connect 25 0 10 0;
#X connect 26 0 20 0;
#X connect 28 0 9 0;
#X connect 29 0 12 0;
#X connect 30 0 11 0;
#X connect 31 0 8 0;
#X connect 32 0 24 0;
#X connect 36 0 15 0;
#X connect 37 0 16 0;
#X connect 42 0 13 0;
#X connect 43 0 14 0;
#X connect 44 0 53 0;
#X connect 45 0 58 0;
#X connect 48 0 45 0;
#X connect 49 0 44 0;
#X connect 52 0 54 0;
#X connect 53 0 52 0;
#X connect 54 0 46 0;
#X connect 55 0 42 0;
#X connect 56 0 47 0;
#X connect 57 0 56 0;
#X connect 58 0 57 0;
#X connect 59 0 43 0;
#X connect 60 0 68 0;
#X connect 61 0 69 0;
#X connect 64 0 61 0;
#X connect 65 0 60 0;
#X connect 68 0 70 0;
#X connect 69 0 71 0;
#X connect 70 0 72 0;
#X connect 71 0 73 0;
#X connect 72 0 62 0;
#X connect 73 0 63 0;
#X connect 74 0 79 0;
#X connect 75 0 74 0;
#X connect 76 0 77 0;
#X connect 78 0 76 0;
#X connect 79 0 80 0;
#X connect 80 0 78 0;
#X restore 599 250 pd head;
#N canvas 659 199 450 300 arm_thumb 0;
#X obj 78 41 inlet;
#X obj 78 83 translateXYZ 0.09 0 0;
#X obj 76 236 sphere 1 30;
#X obj 78 131 scaleXYZ 1.2 0.3 0.3;
#X connect 0 0 1 0;
#X connect 1 0 3 0;
#X connect 3 0 2 0;
#X restore 194 617 pd arm_thumb;
#N canvas 607 211 450 300 arm_middle 0;
#X obj 78 40 inlet;
#X obj 78 79 translateXYZ 0.09 0 0;
#X obj 77 184 sphere 1 30;
#X obj 78 114 scaleXYZ 1.2 0.3 0.3;
#X connect 0 0 1 0;
#X connect 1 0 3 0;
#X connect 3 0 2 0;
#X restore 991 620 pd arm_middle;
#N canvas 741 110 450 300 body 0;
#X obj 100 21 inlet;
#X obj 101 214 outlet;
#X obj 101 108 rotateXYZ 0 180 0;
#X obj 101 145 scaleXYZ 1 1.5 1;
#X obj 107 70 translateXYZ 0 0 0;
#X obj 101 181 sphere 1 30;
#X connect 0 0 4 0;
#X connect 2 0 3 0;
#X connect 3 0 5 0;
#X connect 4 0 2 0;
#X connect 5 0 1 0;
#X restore 714 672 pd body;
#X obj 197 425 translate 1 -1 0 0;
#X obj 197 485 rotate 0 1 0;
#X obj 11 23 inlet;
#X obj 571 552 s \$0arm_thumb;
#X obj 197 369 r \$0arm_thumb;
#X obj 600 36 r \$0head;
#X obj 995 365 r \$0arm_middle;
#X obj 725 554 s \$0head;
#X obj 817 552 s \$0arm_middle;
#X obj 11 99 s \$0gemhead;
#X obj 540 341 r \$0gemhead;
#X obj 81 129 s \$0body_rotation;
#X obj 749 383 r \$0body_rotation;
#X obj 119 160 s \$0arm_thumb_rotation;
#X obj 260 454 r \$0arm_thumb_rotation;
#X obj 152 102 s \$0head_rotation;
#X obj 706 60 r \$0head_rotation;
#X obj 268 131 s \$0arm_middle_rotation;
#X obj 1050 451 r \$0arm_middle_rotation;
#X obj 361 160 s \$0body_translation;
#X obj 662 342 r \$0body_translation;
#X obj 84 2 inlet;
#X obj 84 32 unpack 0 0 0 0 0 0 0 0 0;
#X obj 82 70 pack 0 0 0;
#X obj 273 72 pack 0 0 0;
#X obj 200 515 translateXYZ 0.6 0.5 0;
#X obj 996 508 translateXYZ 0.6 0.5 0;
#X obj 600 214 color 0.6 0.6 0.7;
#X obj 196 549 color 0.6 0.6 0.7;
#X obj 713 613 color 0.6 0.6 0.7;
#X obj 995 543 color 0.6 0.6 0.7;
#X obj 600 185 scaleXYZ 1.8 1.8 1.8;
#X obj 201 587 scaleXYZ 1.8 1.8 1.8;
#X obj 715 639 scaleXYZ 1.8 1.8 1.8;
#X obj 993 591 scaleXYZ 1.8 1.8 1.8;
#X connect 1 0 25 0;
#X connect 3 0 5 0;
#X connect 4 0 51 0;
#X connect 5 0 4 0;
#X connect 7 0 10 0;
#X connect 8 0 9 0;
#X connect 9 0 56 0;
#X connect 10 0 8 0;
#X connect 12 0 18 0;
#X connect 13 0 19 0;
#X connect 13 1 18 2;
#X connect 13 2 20 0;
#X connect 14 0 54 0;
#X connect 15 0 14 0;
#X connect 15 0 28 0;
#X connect 15 0 32 0;
#X connect 15 0 33 0;
#X connect 16 0 12 0;
#X connect 17 0 16 1;
#X connect 17 1 16 2;
#X connect 17 2 16 3;
#X connect 18 0 15 0;
#X connect 19 0 18 1;
#X connect 20 0 18 3;
#X connect 25 0 26 0;
#X connect 26 0 50 0;
#X connect 27 0 34 0;
#X connect 29 0 1 0;
#X connect 30 0 7 0;
#X connect 31 0 3 0;
#X connect 35 0 16 0;
#X connect 37 0 13 0;
#X connect 39 0 26 1;
#X connect 41 0 8 1;
#X connect 43 0 4 1;
#X connect 45 0 17 0;
#X connect 46 0 47 0;
#X connect 47 0 48 0;
#X connect 47 1 48 1;
#X connect 47 2 48 2;
#X connect 47 3 38 0;
#X connect 47 4 40 0;
#X connect 47 5 42 0;
#X connect 47 6 49 0;
#X connect 47 7 49 1;
#X connect 47 8 49 2;
#X connect 48 0 36 0;
#X connect 49 0 44 0;
#X connect 50 0 53 0;
#X connect 51 0 55 0;
#X connect 52 0 21 0;
#X connect 53 0 57 0;
#X connect 54 0 58 0;
#X connect 55 0 59 0;
#X connect 56 0 52 0;
#X connect 57 0 22 0;
#X connect 58 0 24 0;
#X connect 59 0 23 0;
