#N canvas 535 167 765 305 12;
#X obj 95 44 inlet;
#X obj 99 239 outlet;
#X obj 103 191 spigot;
#X obj 164 54 r create;
#X obj 265 78 r destroy;
#X msg 165 118 1;
#X msg 228 118 0;
#X obj 168 157 tgl 15 0 empty empty empty 17 7 0 10 -262144 -1 -1 0
1;
#X obj 165 90 delay 1000;
#X obj 243 199 r create;
#X obj 248 241 outlet;
#X connect 0 0 2 0;
#X connect 2 0 1 0;
#X connect 3 0 8 0;
#X connect 4 0 6 0;
#X connect 5 0 7 0;
#X connect 6 0 7 0;
#X connect 7 0 2 1;
#X connect 8 0 5 0;
#X connect 9 0 10 0;
