#N canvas 489 200 450 372 12;
#X msg 176 102 -1;
#X msg 248 105 1;
#X obj 180 168 i;
#X obj 218 168 +;
#X floatatom 228 265 5 0 0 0 - - -;
#X obj 144 67 t b b;
#X obj 234 64 t b b;
#X obj 144 43 bng 15 250 50 0 empty empty empty 17 7 0 10 -262144 -1
-1;
#X obj 234 40 bng 15 250 50 0 empty empty empty 17 7 0 10 -262144 -1
-1;
#X obj 194 200 moses 4;
#X obj 129 4 inlet;
#X obj 242 6 inlet;
#X obj 349 11 inlet;
#X floatatom 349 35 5 0 0 0 - - -;
#X obj 215 318 outlet;
#X msg 311 141 -1;
#X msg 126 137 4;
#X obj 187 227 moses 0;
#X connect 0 0 3 1;
#X connect 1 0 3 1;
#X connect 2 0 3 0;
#X connect 3 0 2 1;
#X connect 3 0 9 0;
#X connect 4 0 14 0;
#X connect 5 0 2 0;
#X connect 5 1 0 0;
#X connect 6 0 2 0;
#X connect 6 1 1 0;
#X connect 7 0 5 0;
#X connect 8 0 6 0;
#X connect 9 0 17 0;
#X connect 9 1 15 0;
#X connect 10 0 7 0;
#X connect 11 0 8 0;
#X connect 12 0 13 0;
#X connect 13 0 9 1;
#X connect 15 0 2 0;
#X connect 16 0 2 0;
#X connect 17 0 16 0;
#X connect 17 1 4 0;
