#N canvas 0 65 1366 703 16;
#X msg 27 16 listen 17780;
#X floatatom 184 90 5 0 0 0 - - -;
#X floatatom 27 376 5 0 0 0 - - -;
#X floatatom 333 306 5 0 0 0 - - -;
#X text 144 114 Num. of connections, f 20;
#X text 86 377 Num. of hands;
#X floatatom 88 289 5 0 0 0 - - -;
#X obj 27 56 netreceive 17780;
#X obj 149 228 pack 0 0 0;
#X floatatom 149 193 5 0 0 0 - - -;
#X floatatom 204 193 5 0 0 0 - - -;
#X floatatom 259 193 5 0 0 0 - - -;
#X floatatom 395 278 5 0 0 0 - - -;
#X floatatom 456 250 5 0 0 0 - - -;
#X floatatom 518 195 5 0 0 0 - - -;
#X floatatom 573 195 5 0 0 0 - - -;
#X floatatom 628 195 5 0 0 0 - - -;
#X obj 371 366 moses 1;
#X obj 333 424 *;
#X msg 371 394 1;
#X msg 431 394 -1;
#X msg 371 425 0;
#X msg 431 424 180;
#X obj 333 452 +;
#X obj 443 458 bng 15 250 50 0 empty empty empty 17 7 0 10 -262144
-1 -1;
#X obj 382 458 bng 15 250 50 0 empty empty empty 17 7 0 10 -262144
-1 -1;
#X obj 529 10 cnv 15 250 140 empty empty empty 20 12 0 14 -195568 -66577
0;
#X msg 538 75 create;
#X text 545 21 Create window:;
#X obj 648 107 world_light;
#X obj 648 77 gemhead;
#N canvas 80 326 715 415 gemwinP 0;
#X obj 29 215 outlet;
#X obj 80 17 inlet;
#X obj 74 66 route create;
#X msg 50 110 set destroy;
#X msg 192 110 set create;
#X msg 393 117 destroy;
#X obj 375 29 inlet;
#X obj 288 319 gemwin 60;
#X msg 135 219 lighting 1;
#X obj 153 168 t b b;
#X obj 242 16 loadbang;
#X obj 349 254 tgl 15 0 empty empty empty 17 7 0 10 -262144 -1 -1 0
1;
#X msg 270 192 reset \, cursor 0 \, fullscreen 1 \, create \, 1;
#X connect 1 0 2 0;
#X connect 2 0 3 0;
#X connect 2 0 9 0;
#X connect 2 1 4 0;
#X connect 2 1 5 0;
#X connect 3 0 0 0;
#X connect 4 0 0 0;
#X connect 5 0 7 0;
#X connect 6 0 7 0;
#X connect 8 0 7 0;
#X connect 9 0 8 0;
#X connect 9 1 12 0;
#X connect 10 0 4 0;
#X connect 11 0 7 0;
#X connect 12 0 7 0;
#X restore 538 107 pd gemwinP;
#X obj 1098 136 hradio 15 1 0 4 empty empty empty 0 -8 0 10 -262144
-1 -1 3;
#X floatatom 947 312 5 0 0 0 - - -;
#X obj 775 247 pack 0 0 0;
#X floatatom 775 212 5 0 0 0 - - -;
#X floatatom 830 212 5 0 0 0 - - -;
#X floatatom 885 212 5 0 0 0 - - -;
#X floatatom 1008 278 5 0 0 0 - - -;
#X floatatom 1069 251 5 0 0 0 - - -;
#X floatatom 1136 193 5 0 0 0 - - -;
#X floatatom 1191 193 5 0 0 0 - - -;
#X floatatom 1246 193 5 0 0 0 - - -;
#X obj 985 369 moses 1;
#X obj 947 427 *;
#X obj 947 455 +;
#X obj 1057 461 bng 15 250 50 0 empty empty empty 17 7 0 10 -262144
-1 -1;
#X obj 996 461 bng 15 250 50 0 empty empty empty 17 7 0 10 -262144
-1 -1;
#X text 138 291 leftmost == left?;
#X floatatom 701 301 5 0 0 0 - - -;
#X text 752 303 rightmost == left?;
#X obj 16 442 gemhead;
#X obj 147 254 s LH_body_rotation;
#X obj 328 479 s LH_arm_thumb_rotation;
#X obj 1008 306 s RH_head_rotation;
#X obj 1069 277 s RH_arm_middle_rotation;
#X obj 985 340 r RH_is_actually_left;
#X obj 699 374 s RH_is_actually_left;
#X obj 84 351 s LH_is_really_left;
#X obj 370 333 r LH_is_really_left;
#X obj 396 305 s LH_head_rotation;
#X obj 455 276 s LH_arm_middle_rotation;
#X obj 301 508 r LH_body_rotation;
#X obj 325 534 r LH_arm_thumb_rotation;
#X obj 339 562 r LH_head_rotation;
#X obj 361 593 r LH_arm_middle_rotation;
#X obj 621 441 gemhead;
#X obj 900 508 r RH_body_rotation;
#X obj 924 534 r RH_arm_thumb_rotation;
#X obj 938 562 r RH_head_rotation;
#X obj 960 594 r RH_arm_middle_rotation;
#X obj 947 482 s RH_arm_thumb_rotation;
#X obj 774 275 s RH_body_rotation;
#X obj 38 666 i-puppet;
#X msg 985 397 1;
#X msg 1045 397 -1;
#X msg 984 418 0;
#X msg 1045 427 180;
#X obj 27 164 unpack 0 0 0 0 0 0 0 0 0 0 0 0 0 0 0 0 0 0 0 0 0, f
123;
#X obj 641 514 select 555;
#X msg 698 552 1;
#X msg 645 549 0;
#X obj 35 528 select 555;
#X msg 98 563 1;
#X msg 45 560 0;
#X obj 636 479 r RH_turnOff;
#X obj 720 339 s RH_turnOff;
#X obj 632 579 spigot;
#X obj 33 591 spigot;
#X obj 36 490 r LH_turnOff;
#X obj 108 322 s LH_turnOff;
#N canvas 494 152 450 300 gate4 0;
#X obj 93 108 list prepend;
#X obj 71 68 inlet;
#X obj 292 75 inlet;
#X obj 60 241 outlet;
#X obj 128 241 outlet;
#X obj 198 241 outlet;
#X obj 182 12 loadbang;
#X msg 207 64 0;
#X obj 97 169 route 0 1 2 3;
#X obj 268 241 outlet;
#X connect 0 0 8 0;
#X connect 1 0 0 0;
#X connect 2 0 0 1;
#X connect 6 0 7 0;
#X connect 7 0 0 1;
#X connect 8 0 3 0;
#X connect 8 1 4 0;
#X connect 8 2 5 0;
#X connect 8 3 9 0;
#X restore 37 625 pd gate4;
#X obj 1162 130 s rightPuppetId;
#X obj 851 134 hradio 15 1 0 4 empty empty empty 0 -8 0 10 -262144
-1 -1 2;
#X obj 884 86 incDec;
#X obj 914 130 s leftPuppetId;
#X obj 1134 87 incDec;
#N canvas 494 152 450 300 gate4 0;
#X obj 93 108 list prepend;
#X obj 71 68 inlet;
#X obj 292 75 inlet;
#X obj 60 241 outlet;
#X obj 128 241 outlet;
#X obj 198 241 outlet;
#X obj 182 12 loadbang;
#X msg 207 64 0;
#X obj 97 169 route 0 1 2 3;
#X obj 268 241 outlet;
#X connect 0 0 8 0;
#X connect 1 0 0 0;
#X connect 2 0 0 1;
#X connect 6 0 7 0;
#X connect 7 0 0 1;
#X connect 8 0 3 0;
#X connect 8 1 4 0;
#X connect 8 2 5 0;
#X connect 8 3 9 0;
#X restore 633 614 pd gate4;
#X obj 118 591 r leftPuppetId;
#X obj 703 583 r rightPuppetId;
#X obj 54 704 e-puppet;
#N canvas 494 152 450 300 gate4 0;
#X obj 93 108 list prepend;
#X obj 71 68 inlet;
#X obj 292 75 inlet;
#X obj 60 241 outlet;
#X obj 128 241 outlet;
#X obj 198 241 outlet;
#X obj 182 12 loadbang;
#X msg 207 64 0;
#X obj 97 169 route 0 1 2 3;
#X obj 268 241 outlet;
#X connect 0 0 8 0;
#X connect 1 0 0 0;
#X connect 2 0 0 1;
#X connect 6 0 7 0;
#X connect 7 0 0 1;
#X connect 8 0 3 0;
#X connect 8 1 4 0;
#X connect 8 2 5 0;
#X connect 8 3 9 0;
#X restore 227 740 pd gate4;
#X obj 346 735 r leftPuppetId;
#N canvas 494 152 450 300 gate4 0;
#X obj 93 108 list prepend;
#X obj 71 68 inlet;
#X obj 292 75 inlet;
#X obj 60 241 outlet;
#X obj 128 241 outlet;
#X obj 198 241 outlet;
#X obj 182 12 loadbang;
#X msg 207 64 0;
#X obj 97 169 route 0 1 2 3;
#X obj 268 241 outlet;
#X connect 0 0 8 0;
#X connect 1 0 0 0;
#X connect 2 0 0 1;
#X connect 6 0 7 0;
#X connect 7 0 0 1;
#X connect 8 0 3 0;
#X connect 8 1 4 0;
#X connect 8 2 5 0;
#X connect 8 3 9 0;
#X restore 836 740 pd gate4;
#X obj 915 711 r rightPuppetId;
#X obj 637 660 i-puppet;
#X obj 653 698 e-puppet;
#X obj 842 682 pack 0 0 0 0 0 0 0 0 0;
#X obj 261 705 pack 0 0 0 0 0 0 0 0 0;
#X obj 518 221 s LH_bodyX;
#X obj 562 248 s LH_bodyY;
#X obj 625 222 s LH_bodyZ;
#X obj 405 620 r LH_bodyX;
#X obj 464 645 r LH_bodyY;
#X obj 502 673 r LH_bodyZ;
#X obj 1126 223 s RH_bodyX;
#X obj 1170 250 s RH_bodyY;
#X obj 1234 224 s RH_bodyZ;
#X obj 1012 622 r RH_bodyX;
#X obj 1072 650 r RH_bodyY;
#X obj 1102 677 r RH_bodyZ;
#X obj 83 736 pig-puppet;
#X obj 847 6 gemkeyboard;
#X obj 969 7 gemkeyboard;
#X obj 1094 10 gemkeyboard;
#X obj 1216 11 gemkeyboard;
#X obj 870 37 select 38;
#X obj 970 37 select 44;
#X obj 1096 45 select 36;
#X obj 1194 46 select 14;
#X obj 682 730 pig-puppet;
#X obj 118 766 elephant-puppet;
#X obj 717 760 elephant-puppet;
#X obj 404 8 gemkeyboard;
#X obj 415 39 select 9;
#X msg 419 71 destroy;
#X obj 404 650 * 3;
#X obj 1006 652 * 3;
#X obj 1000 66 loadbang;
#X msg 981 96 2;
#X msg 1031 98 3;
#X connect 0 0 7 0;
#X connect 3 0 18 0;
#X connect 6 0 58 0;
#X connect 6 0 90 0;
#X connect 7 0 78 0;
#X connect 7 1 1 0;
#X connect 8 0 52 0;
#X connect 9 0 8 0;
#X connect 10 0 8 1;
#X connect 11 0 8 2;
#X connect 12 0 60 0;
#X connect 13 0 61 0;
#X connect 14 0 109 0;
#X connect 15 0 110 0;
#X connect 16 0 111 0;
#X connect 17 0 19 0;
#X connect 17 1 20 0;
#X connect 18 0 23 0;
#X connect 19 0 18 1;
#X connect 19 0 21 0;
#X connect 20 0 18 1;
#X connect 20 0 22 0;
#X connect 21 0 23 1;
#X connect 21 0 25 0;
#X connect 22 0 23 1;
#X connect 22 0 24 0;
#X connect 23 0 53 0;
#X connect 27 0 31 0;
#X connect 30 0 29 0;
#X connect 31 0 27 0;
#X connect 32 0 92 0;
#X connect 33 0 44 0;
#X connect 34 0 72 0;
#X connect 35 0 34 0;
#X connect 36 0 34 1;
#X connect 37 0 34 2;
#X connect 38 0 54 0;
#X connect 39 0 55 0;
#X connect 40 0 115 0;
#X connect 41 0 116 0;
#X connect 42 0 117 0;
#X connect 43 0 74 0;
#X connect 43 1 75 0;
#X connect 44 0 45 0;
#X connect 45 0 71 0;
#X connect 49 0 57 0;
#X connect 49 0 86 0;
#X connect 51 0 88 0;
#X connect 56 0 43 0;
#X connect 59 0 17 0;
#X connect 62 0 108 0;
#X connect 63 0 108 3;
#X connect 64 0 108 4;
#X connect 65 0 108 5;
#X connect 66 0 87 0;
#X connect 67 0 107 0;
#X connect 68 0 107 3;
#X connect 69 0 107 4;
#X connect 70 0 107 5;
#X connect 74 0 44 1;
#X connect 74 0 76 0;
#X connect 75 0 44 1;
#X connect 75 0 77 0;
#X connect 76 0 45 1;
#X connect 76 0 47 0;
#X connect 77 0 45 1;
#X connect 77 0 46 0;
#X connect 78 0 2 0;
#X connect 78 1 6 0;
#X connect 78 2 9 0;
#X connect 78 3 10 0;
#X connect 78 4 11 0;
#X connect 78 5 3 0;
#X connect 78 6 12 0;
#X connect 78 7 13 0;
#X connect 78 8 14 0;
#X connect 78 9 15 0;
#X connect 78 10 16 0;
#X connect 78 11 49 0;
#X connect 78 12 35 0;
#X connect 78 13 36 0;
#X connect 78 14 37 0;
#X connect 78 15 33 0;
#X connect 78 16 38 0;
#X connect 78 17 39 0;
#X connect 78 18 40 0;
#X connect 78 19 41 0;
#X connect 78 20 42 0;
#X connect 79 0 81 0;
#X connect 79 1 80 0;
#X connect 80 0 87 1;
#X connect 81 0 87 1;
#X connect 82 0 84 0;
#X connect 82 1 83 0;
#X connect 83 0 88 1;
#X connect 84 0 88 1;
#X connect 85 0 79 0;
#X connect 87 0 97 0;
#X connect 88 0 91 0;
#X connect 89 0 82 0;
#X connect 91 0 73 0;
#X connect 91 1 100 0;
#X connect 91 2 121 0;
#X connect 91 3 131 0;
#X connect 93 0 95 0;
#X connect 94 0 93 0;
#X connect 96 0 32 0;
#X connect 97 0 105 0;
#X connect 97 1 106 0;
#X connect 97 2 130 0;
#X connect 97 3 132 0;
#X connect 98 0 91 1;
#X connect 99 0 97 1;
#X connect 101 0 73 1;
#X connect 101 1 100 1;
#X connect 101 2 121 1;
#X connect 101 3 131 1;
#X connect 102 0 101 1;
#X connect 103 0 105 1;
#X connect 103 1 106 1;
#X connect 103 2 130 1;
#X connect 103 3 132 1;
#X connect 104 0 103 1;
#X connect 107 0 103 0;
#X connect 108 0 101 0;
#X connect 112 0 136 0;
#X connect 113 0 108 7;
#X connect 114 0 108 8;
#X connect 118 0 137 0;
#X connect 119 0 107 7;
#X connect 120 0 107 8;
#X connect 122 0 126 0;
#X connect 123 0 127 0;
#X connect 124 0 128 0;
#X connect 125 0 129 0;
#X connect 126 0 94 0;
#X connect 127 0 94 1;
#X connect 128 0 96 0;
#X connect 129 0 96 1;
#X connect 133 0 134 0;
#X connect 134 0 135 0;
#X connect 135 0 31 0;
#X connect 136 0 108 6;
#X connect 137 0 107 6;
#X connect 138 0 139 0;
#X connect 138 0 140 0;
#X connect 139 0 93 0;
#X connect 140 0 32 0;
