#N canvas 0 65 1366 703 16;
#X obj 176 340 cnv 15 300 310 empty empty Arm_Thumb_Finger 20 12 0
14 -204786 -66577 0;
#X obj 197 398 separator;
#X obj 971 338 cnv 15 300 310 empty empty Arm_Middle_Finger 20 12 0
14 -204786 -66577 0;
#X obj 994 394 separator;
#X obj 994 479 rotate 0 1 0;
#X obj 994 423 translate 1 1 0 0;
#X obj 580 13 cnv 15 300 290 empty empty Head_Index_Finger 20 12 0
14 -204786 -66577 0;
#X obj 600 64 separator;
#X obj 600 126 rotate 1 0 0;
#X obj 600 156 translate 1 0 1 0;
#X obj 600 93 translate 1 0 1 0;
#X obj 526 310 cnv 15 390 360 empty empty Body_Hand_Palm 20 12 0 14
-261234 -66577 0;
#X obj 536 458 translate -0.5 0 1 0;
#X obj 748 425 unpack 0 0 0;
#X obj 713 584 separator;
#X obj 713 518 translate 0.5 0 1 0;
#X obj 589 425 translateXYZ;
#X obj 607 393 unpack 0 0 0;
#X obj 715 489 rotateXYZ;
#X obj 743 454 * -1;
#X obj 818 456 * -1;
#N canvas 806 144 560 624 head 0;
#X obj 31 21 inlet;
#X obj 402 7 adc~;
#X obj 403 44 env~;
#X floatatom 404 77 5 0 0 0 - - -;
#X floatatom 406 135 5 0 0 0 - - -;
#X floatatom 405 193 5 0 0 0 - - -;
#X obj 404 105 - 60;
#X obj 406 163 / 20;
#X obj 31 116 translateXYZ 0 0 0;
#X obj 68 225 rotateXYZ 0 0 315;
#X obj 69 195 separator;
#X obj 290 193 separator;
#X obj 294 224 rotateXYZ 0 0 -315;
#X obj 36 160 scaleXYZ 1 1 1;
#X obj 68 280 scaleXYZ 0.3 0.7 0.01;
#X obj 294 279 scaleXYZ 0.3 0.7 0.01;
#X obj 68 252 translateXYZ 0 0.6 0;
#X obj 294 251 translateXYZ 0 0.6 0;
#X obj 56 339 separator;
#X obj 311 340 separator;
#X obj 50 437 color 0 0 0;
#X obj 46 403 scaleXYZ 0.1 0.2 0.2;
#X obj 49 373 translateXYZ -0.2 0.3 0.8;
#X obj 317 429 color 0 0 0;
#X obj 313 400 scaleXYZ 0.1 0.2 0.2;
#X obj 316 370 translateXYZ 0.2 0.3 0.8;
#X obj 179 484 separator;
#X obj 166 570 color 1 0.7 0.7;
#X obj 76 663 separator;
#X obj 330 661 separator;
#X obj 42 756 color 0 0 0;
#X obj 44 788 circle;
#X obj 36 721 scaleXYZ 0.03 0.1 0.1;
#X obj 26 692 translateXYZ -0.05 -0.12 1.05;
#X obj 346 760 color 0 0 0;
#X obj 348 792 circle;
#X obj 340 725 scaleXYZ 0.03 0.1 0.1;
#X obj 330 696 translateXYZ 0.05 -0.12 1.05;
#X obj 166 544 scaleXYZ 0.5 0.3 0.2;
#X obj 171 514 translateXYZ 0 -0.12 0.85;
#X obj 325 454 sphere 1 30;
#X obj 52 469 sphere 1 30;
#X obj 176 604 sphere 1 30;
#X obj 32 586 sphere 1 30;
#X obj 5 529 color 1 0.5 0.5;
#X obj 68 308 sphere;
#X obj 300 310 sphere;
#X connect 0 0 8 0;
#X connect 1 0 2 0;
#X connect 2 0 3 0;
#X connect 3 0 6 0;
#X connect 4 0 7 0;
#X connect 6 0 4 0;
#X connect 7 0 5 0;
#X connect 8 0 13 0;
#X connect 9 0 16 0;
#X connect 10 0 9 0;
#X connect 11 0 12 0;
#X connect 12 0 17 0;
#X connect 13 0 10 0;
#X connect 13 0 11 0;
#X connect 13 0 18 0;
#X connect 13 0 19 0;
#X connect 13 0 26 0;
#X connect 13 0 28 0;
#X connect 13 0 29 0;
#X connect 13 0 44 0;
#X connect 14 0 45 0;
#X connect 15 0 46 0;
#X connect 16 0 14 0;
#X connect 17 0 15 0;
#X connect 18 0 22 0;
#X connect 19 0 25 0;
#X connect 20 0 41 0;
#X connect 21 0 20 0;
#X connect 22 0 21 0;
#X connect 23 0 40 0;
#X connect 24 0 23 0;
#X connect 25 0 24 0;
#X connect 26 0 39 0;
#X connect 27 0 42 0;
#X connect 28 0 33 0;
#X connect 29 0 37 0;
#X connect 30 0 31 0;
#X connect 32 0 30 0;
#X connect 33 0 32 0;
#X connect 34 0 35 0;
#X connect 36 0 34 0;
#X connect 37 0 36 0;
#X connect 38 0 27 0;
#X connect 39 0 38 0;
#X connect 44 0 43 0;
#X restore 599 250 pd head;
#N canvas 659 199 450 300 arm_thumb 0;
#X obj 78 41 inlet;
#X obj 78 83 translateXYZ 0.09 0 0;
#X obj 78 131 scaleXYZ 1 0.3 0.3;
#X obj 76 235 sphere 1 30;
#X connect 0 0 1 0;
#X connect 1 0 2 0;
#X connect 2 0 3 0;
#X restore 197 584 pd arm_thumb;
#N canvas 607 211 450 300 arm_middle 0;
#X obj 78 40 inlet;
#X obj 78 79 translateXYZ 0.09 0 0;
#X obj 78 114 scaleXYZ 1 0.3 0.3;
#X obj 76 184 sphere 1 30;
#X connect 0 0 1 0;
#X connect 1 0 2 0;
#X connect 2 0 3 0;
#X restore 994 586 pd arm_middle;
#N canvas 751 118 450 300 body 0;
#X obj 100 21 inlet;
#X obj 101 214 outlet;
#X obj 101 108 rotateXYZ 0 180 0;
#X obj 101 145 scaleXYZ 1 1.5 1;
#X obj 107 70 translateXYZ 0 0 0;
#X obj 101 181 sphere 1 30;
#X connect 0 0 4 0;
#X connect 2 0 3 0;
#X connect 3 0 5 0;
#X connect 4 0 2 0;
#X connect 5 0 1 0;
#X restore 713 643 pd body;
#X obj 197 425 translate 1 -1 0 0;
#X obj 197 485 rotate 0 1 0;
#X obj 11 23 inlet;
#X obj 571 552 s \$0arm_thumb;
#X obj 197 369 r \$0arm_thumb;
#X obj 600 36 r \$0head;
#X obj 995 365 r \$0arm_middle;
#X obj 725 554 s \$0head;
#X obj 817 552 s \$0arm_middle;
#X obj 11 99 s \$0gemhead;
#X obj 540 341 r \$0gemhead;
#X obj 81 129 s \$0body_rotation;
#X obj 749 383 r \$0body_rotation;
#X obj 119 160 s \$0arm_thumb_rotation;
#X obj 260 454 r \$0arm_thumb_rotation;
#X obj 152 102 s \$0head_rotation;
#X obj 706 60 r \$0head_rotation;
#X obj 268 131 s \$0arm_middle_rotation;
#X obj 1050 451 r \$0arm_middle_rotation;
#X obj 361 160 s \$0body_translation;
#X obj 662 342 r \$0body_translation;
#X obj 84 2 inlet;
#X obj 84 32 unpack 0 0 0 0 0 0 0 0 0;
#X obj 82 70 pack 0 0 0;
#X obj 273 72 pack 0 0 0;
#X obj 600 215 color 1 0.5 0.5;
#X obj 196 549 color 1 0.5 0.5;
#X obj 994 543 color 1 0.5 0.5;
#X obj 713 613 color 1 0.5 0.5;
#X obj 200 515 translateXYZ 0.6 0.5 0;
#X obj 996 508 translateXYZ 0.6 0.5 0;
#X obj 601 185 scaleXYZ 1 1 1;
#X connect 1 0 25 0;
#X connect 3 0 5 0;
#X connect 4 0 55 0;
#X connect 5 0 4 0;
#X connect 7 0 10 0;
#X connect 8 0 9 0;
#X connect 9 0 56 0;
#X connect 10 0 8 0;
#X connect 12 0 18 0;
#X connect 13 0 19 0;
#X connect 13 1 18 2;
#X connect 13 2 20 0;
#X connect 14 0 53 0;
#X connect 15 0 14 0;
#X connect 15 0 28 0;
#X connect 15 0 32 0;
#X connect 15 0 33 0;
#X connect 16 0 12 0;
#X connect 17 0 16 1;
#X connect 17 1 16 2;
#X connect 17 2 16 3;
#X connect 18 0 15 0;
#X connect 19 0 18 1;
#X connect 20 0 18 3;
#X connect 25 0 26 0;
#X connect 26 0 54 0;
#X connect 27 0 34 0;
#X connect 29 0 1 0;
#X connect 30 0 7 0;
#X connect 31 0 3 0;
#X connect 35 0 16 0;
#X connect 37 0 13 0;
#X connect 39 0 26 1;
#X connect 41 0 8 1;
#X connect 43 0 4 1;
#X connect 45 0 17 0;
#X connect 46 0 47 0;
#X connect 47 0 48 0;
#X connect 47 1 48 1;
#X connect 47 2 48 2;
#X connect 47 3 38 0;
#X connect 47 4 40 0;
#X connect 47 5 42 0;
#X connect 47 6 49 0;
#X connect 47 7 49 1;
#X connect 47 8 49 2;
#X connect 48 0 36 0;
#X connect 49 0 44 0;
#X connect 50 0 21 0;
#X connect 51 0 22 0;
#X connect 52 0 23 0;
#X connect 53 0 24 0;
#X connect 54 0 51 0;
#X connect 55 0 52 0;
#X connect 56 0 50 0;
